<?xml version="1.0" encoding="iso-8859-1"?>
<!-- Generator: Adobe Illustrator 19.0.0, SVG Export Plug-In . SVG Version: 6.00 Build 0)  -->
<svg version="1.1" id="Capa_1" xmlns="http://www.w3.org/2000/svg" xmlns:xlink="http://www.w3.org/1999/xlink" x="0px" y="0px"
	 viewBox="0 0 511.922 511.922" style="enable-background:new 0 0 511.922 511.922;" xml:space="preserve">
<g>
	<g>
		<path d="M256.199,111.99h-0.078c-2.21,0-3.96,1.789-3.96,3.999c0,2.21,1.831,3.999,4.038,3.999c2.21,0,4.002-1.789,4.002-3.999
			C260.201,113.779,258.409,111.99,256.199,111.99z"/>
	</g>
</g>
<g>
	<g>
		<path d="M256.199,95.993h-0.078c-2.21,0-3.96,1.789-3.96,3.999c0,2.21,1.831,3.999,4.038,3.999c2.21,0,4.002-1.789,4.002-3.999
			C260.201,97.782,258.409,95.993,256.199,95.993z"/>
	</g>
</g>
<g>
	<g>
		<path d="M256.199,79.996h-0.078c-2.21,0-3.96,1.788-3.96,3.999c0,2.21,1.831,3.999,4.038,3.999c2.21,0,4.002-1.789,4.002-3.999
			C260.201,81.784,258.409,79.996,256.199,79.996z"/>
	</g>
</g>
<g>
	<g>
		<path d="M399.934,199.965c-2.21,0-3.999,1.789-3.999,4v295.959c0,2.211,1.789,4,3.999,4c2.211,0,4-1.789,4-4.001V203.965
			C403.934,201.754,402.145,199.965,399.934,199.965z"/>
	</g>
</g>
<g>
	<g>
		<path d="M507.564,210.318c-2.227-4.932-54.725-120.935-72.964-137.307c-18.222-16.352-86.468-39.809-89.358-40.801
			c-2.101-0.702-4.374,0.399-5.077,2.492c-0.719,2.09,0.398,4.362,2.483,5.077c0.695,0.239,69.588,23.911,86.609,39.185
			c14.107,12.662,56.045,101.486,71.011,134.644c0.671,1.48,2.125,2.355,3.648,2.355c0.554,0,1.108-0.113,1.648-0.356
			C507.572,214.7,508.469,212.329,507.564,210.318z"/>
	</g>
</g>
<g>
	<g>
		<path d="M507.501,210.196c-0.984-1.996-3.398-2.777-5.358-1.816l-79.986,39.493c-1.976,0.976-2.789,3.374-1.812,5.354
			c0.695,1.413,2.116,2.229,3.585,2.229c0.601,0,1.203-0.133,1.774-0.414l79.985-39.492
			C507.665,214.574,508.477,212.175,507.501,210.196z"/>
	</g>
</g>
<g>
	<g>
		<path d="M427.501,249.652l-23.996-47.491c-1-1.98-3.422-2.765-5.374-1.765c-1.969,0.996-2.757,3.402-1.766,5.374l23.996,47.492
			c0.703,1.394,2.108,2.194,3.569,2.194c0.609,0,1.226-0.137,1.805-0.43C427.704,254.03,428.492,251.625,427.501,249.652z"/>
	</g>
</g>
<g>
	<g>
		<path d="M399.934,495.925c-2.21,0-3.999,1.788-3.999,3.999c0,2.203-1.796,4-3.999,4c-2.211,0-3.999,1.788-3.999,3.999
			c0,2.21,1.788,3.999,3.999,3.999c6.616,0,11.998-5.382,11.998-11.998C403.934,497.713,402.145,495.925,399.934,495.925z"/>
	</g>
</g>
<g>
	<g>
		<path d="M111.987,199.965c-2.211,0-4,1.789-4,4v295.959c0,2.211,1.789,4,4,4c2.21,0,3.999-1.789,3.999-4.001V203.965
			C115.986,201.754,114.197,199.965,111.987,199.965z"/>
	</g>
</g>
<g>
	<g>
		<path d="M171.761,34.703c-0.719-2.094-3-3.202-5.077-2.492c-2.898,0.991-71.139,24.448-89.363,40.801
			C59.078,89.384,6.587,205.387,4.362,210.319c-0.91,2.012-0.016,4.383,1.999,5.289c0.532,0.242,1.094,0.355,1.641,0.355
			c1.527,0,2.98-0.875,3.647-2.355C26.619,180.45,68.557,91.626,82.664,78.965c17.016-15.271,85.914-38.947,86.605-39.185
			C171.359,39.065,172.475,36.793,171.761,34.703z"/>
	</g>
</g>
<g>
	<g>
		<path d="M89.76,247.872L9.775,208.379c-1.972-0.981-4.378-0.161-5.354,1.816c-0.981,1.979-0.164,4.377,1.815,5.354l79.986,39.493
			c0.566,0.281,1.171,0.414,1.765,0.414c1.476,0,2.894-0.816,3.589-2.23C92.556,251.246,91.74,248.848,89.76,247.872z"/>
	</g>
</g>
<g>
	<g>
		<path d="M113.792,200.396c-1.964-0.996-4.374-0.203-5.374,1.765l-23.996,47.491c-0.996,1.973-0.207,4.378,1.765,5.374
			c0.578,0.293,1.195,0.43,1.8,0.43c1.461,0,2.871-0.805,3.574-2.195l23.996-47.491
			C116.553,203.798,115.764,201.392,113.792,200.396z"/>
	</g>
</g>
<g>
	<g>
		<path d="M119.985,503.924c-2.206,0-3.999-1.797-3.999-4c0-2.211-1.789-3.999-3.999-3.999c-2.211,0-4,1.788-4,3.999
			c0,6.616,5.382,11.998,11.998,11.998c2.211,0,3.999-1.789,4-3.999C123.985,505.712,122.196,503.924,119.985,503.924z"/>
	</g>
</g>
<g>
	<g>
		<path d="M391.936,503.924H119.985c-2.21,0-3.999,1.788-3.999,3.999c0,2.21,1.789,3.999,3.999,3.999h271.951
			c2.211,0,3.999-1.789,3.999-3.999C395.935,505.712,394.147,503.924,391.936,503.924z"/>
	</g>
</g>
<g>
	<g>
		<path d="M383.938,487.918H127.984c-2.211,0-4,1.789-4,4c0,2.21,1.789,3.999,4,3.999h255.954c2.21,0,3.999-1.789,3.999-3.999
			C387.937,489.707,386.148,487.918,383.938,487.918z"/>
	</g>
</g>
<g>
	<g>
		<path d="M339.828,35.035l-7.999-31.994c-0.532-2.149-2.749-3.457-4.851-2.91c-2.148,0.535-3.444,2.707-2.914,4.847l7.999,31.994
			c0.453,1.82,2.086,3.031,3.882,3.031c0.321,0,0.649-0.04,0.969-0.121C339.062,39.347,340.359,37.175,339.828,35.035z"/>
	</g>
</g>
<g>
	<g>
		<path d="M311.95,0.009H199.971c-2.211,0-4,1.789-4,4c0,2.21,1.79,3.999,4,3.999H311.95c2.21,0,3.999-1.789,3.999-3.999
			C315.949,1.798,314.16,0.009,311.95,0.009z"/>
	</g>
</g>
<g>
	<g>
		<path d="M331.211,1.701c-1.264-1.8-3.788-2.23-5.569-0.961l-67.991,47.992c-1.804,1.277-2.233,3.769-0.96,5.577
			c0.781,1.101,2.015,1.691,3.268,1.691c0.797,0,1.609-0.239,2.304-0.731l67.988-47.991C332.055,6.001,332.484,3.51,331.211,1.701z"
			/>
	</g>
</g>
<g>
	<g>
		<path d="M305.966,74.216l-43.992-25.667c-1.898-1.105-4.354-0.473-5.467,1.437c-1.113,1.906-0.473,4.355,1.437,5.468
			l43.992,25.667c0.632,0.371,1.327,0.546,2.015,0.546c1.375,0,2.711-0.711,3.453-1.983
			C308.521,77.778,307.872,75.329,305.966,74.216z"/>
	</g>
</g>
<g>
	<g>
		<path d="M338.382,32.832c-1.742-1.347-4.256-1.019-5.608,0.734L300.78,75.231c-1.344,1.753-1.016,4.265,0.734,5.608
			c0.727,0.559,1.585,0.828,2.437,0.828c1.196,0,2.383-0.539,3.171-1.562l31.994-41.665
			C340.46,36.687,340.132,34.175,338.382,32.832z"/>
	</g>
</g>
<g>
	<g>
		<path d="M184.942,0.131c-2.14-0.566-4.316,0.762-4.847,2.91l-7.998,31.994c-0.539,2.14,0.765,4.312,2.909,4.847
			c0.325,0.082,0.653,0.121,0.973,0.121c1.793,0,3.421-1.211,3.874-3.031l7.999-31.994C188.391,2.838,187.087,0.666,184.942,0.131z"
			/>
	</g>
</g>
<g>
	<g>
		<path d="M254.27,48.732L186.282,0.74c-1.808-1.269-4.304-0.835-5.577,0.961c-1.273,1.808-0.844,4.3,0.961,5.577l67.987,47.992
			c0.703,0.492,1.508,0.73,2.305,0.73c1.257,0,2.491-0.59,3.272-1.691C256.504,52.501,256.074,50.009,254.27,48.732z"/>
	</g>
</g>
<g>
	<g>
		<path d="M255.414,49.986c-1.109-1.902-3.55-2.546-5.468-1.437l-43.992,25.667c-1.91,1.113-2.55,3.562-1.437,5.468
			c0.742,1.273,2.081,1.983,3.456,1.983c0.684,0,1.379-0.176,2.012-0.546l43.992-25.667
			C255.887,54.341,256.527,51.892,255.414,49.986z"/>
	</g>
</g>
<g>
	<g>
		<path d="M211.141,75.231l-31.996-41.665c-1.336-1.738-3.843-2.081-5.608-0.734c-1.749,1.343-2.081,3.855-0.734,5.608
			l31.995,41.665c0.785,1.023,1.972,1.562,3.175,1.562c0.848,0,1.707-0.269,2.434-0.828
			C212.156,79.496,212.488,76.984,211.141,75.231z"/>
	</g>
</g>
<g>
	<g>
		<path d="M247.962,63.999c-2.211,0-4,1.788-4,3.999v63.988c0,2.211,1.789,3.999,4,3.999c2.21,0,3.999-1.788,3.999-3.999V67.998
			C251.961,65.787,250.172,63.999,247.962,63.999z"/>
	</g>
</g>
<g>
	<g>
		<path d="M263.959,127.987h-15.997c-2.211,0-4,1.789-4,3.999c0,2.211,1.789,3.999,4,3.999h15.997c2.21,0,3.999-1.788,3.999-3.999
			C267.958,129.776,266.169,127.987,263.959,127.987z"/>
	</g>
</g>
<g>
	<g>
		<path d="M263.959,63.999c-2.211,0-4,1.788-4,3.999v63.988c0,2.211,1.789,3.999,4,3.999c2.21,0,3.999-1.788,3.999-3.999V67.998
			C267.958,65.787,266.169,63.999,263.959,63.999z"/>
	</g>
</g>
<g>
	<g>
		<path d="M351.943,135.984h-31.995c-2.21,0-3.999,1.79-3.999,4v23.996c0,2.211,1.789,4,3.999,4c2.211,0,3.999-1.789,3.999-4
			v-19.996h23.996v19.996c0,2.211,1.789,4,4,4c2.21,0,3.999-1.789,3.999-4v-23.996C355.942,137.773,354.153,135.984,351.943,135.984
			z"/>
	</g>
</g>
<g>
	<g>
		<path d="M351.943,159.981c-2.211,0-4,1.789-4,3.999c0,6.616-5.382,11.998-11.998,11.998c-6.615,0-11.998-5.382-11.998-11.998
			c0-2.21-1.788-3.999-3.999-3.999c-2.21,0-3.999,1.789-3.999,3.999c0,11.026,8.967,19.997,19.996,19.997
			c11.03,0,19.997-8.972,19.997-19.997C355.942,161.77,354.153,159.981,351.943,159.981z"/>
	</g>
</g>
<g>
	<g>
		<path d="M343.944,151.982h-15.997c-2.211,0-4,1.789-4,4c0,2.21,1.789,3.999,4,3.999h15.997c2.21,0,3.999-1.789,3.999-3.999
			C347.943,153.771,346.154,151.982,343.944,151.982z"/>
	</g>
</g>
<g>
	<g>
		<path d="M335.945,167.979c-2.21,0-3.999,1.789-3.999,4v7.998c0,2.211,1.789,4,3.999,4c2.211,0,4-1.789,4-4v-7.998
			C339.945,169.768,338.156,167.979,335.945,167.979z"/>
	</g>
</g>
<g>
	<g>
		<path d="M500.415,195.846c-0.976-1.991-3.397-2.784-5.358-1.816l-79.985,39.493c-1.976,0.976-2.789,3.375-1.812,5.354
			c0.695,1.414,2.117,2.23,3.586,2.23c0.6,0,1.202-0.133,1.772-0.414l79.985-39.493
			C500.579,200.224,501.392,197.826,500.415,195.846z"/>
	</g>
</g>
<g>
	<g>
		<path d="M96.837,233.523L16.851,194.03c-1.967-0.972-4.381-0.16-5.354,1.816c-0.98,1.98-0.164,4.378,1.816,5.354l79.985,39.493
			c0.567,0.281,1.172,0.414,1.766,0.414c1.476,0,2.894-0.816,3.589-2.23C99.633,236.898,98.817,234.5,96.837,233.523z"/>
	</g>
</g>
<g>
</g>
<g>
</g>
<g>
</g>
<g>
</g>
<g>
</g>
<g>
</g>
<g>
</g>
<g>
</g>
<g>
</g>
<g>
</g>
<g>
</g>
<g>
</g>
<g>
</g>
<g>
</g>
<g>
</g>
</svg>
