<?xml version="1.0" encoding="iso-8859-1"?>
<!-- Generator: Adobe Illustrator 19.0.0, SVG Export Plug-In . SVG Version: 6.00 Build 0)  -->
<svg version="1.1" id="Capa_1" xmlns="http://www.w3.org/2000/svg" xmlns:xlink="http://www.w3.org/1999/xlink" x="0px" y="0px"
	 viewBox="0 0 480.017 480.017" style="enable-background:new 0 0 480.017 480.017;" xml:space="preserve">
<g>
	<g>
		<path d="M479.811,342.219c-0.152-0.66-0.387-1.298-0.699-1.898L376.008,142.048v-66.04c0-25.272-95.112-28-136-28
			s-136,2.728-136,28v66.04L0.904,340.32c-2.039,3.92-0.514,8.75,3.406,10.789c0.601,0.312,1.238,0.547,1.898,0.699L79.4,368.696
			l-6.976,20.8c-1.403,4.19,0.857,8.723,5.046,10.126c0.607,0.203,1.236,0.333,1.874,0.386l90.6,7.552l-1.88,15.52
			c-0.513,4.388,2.63,8.362,7.018,8.874c0.307,0.036,0.617,0.054,0.926,0.054h128c4.418,0.001,8.001-3.58,8.002-7.998
			c0-0.321-0.019-0.643-0.058-0.962l-1.88-15.52l90.6-7.52c4.403-0.368,7.674-4.235,7.306-8.638
			c-0.053-0.638-0.183-1.267-0.386-1.874l-6.976-20.8l73.192-16.888C478.114,350.818,480.802,346.524,479.811,342.219z
			 M240.008,64.008c64.144,0,102.96,6.832,116.184,12c-13.224,5.168-52.04,12-116.184,12c-64.144,0-102.96-6.832-116.184-12
			C137.048,70.84,175.864,64.008,240.008,64.008z M360.008,91.232v46.488c-5.304,1.256-10.664,2.216-16,3.304V95.912
			C349.451,94.754,354.799,93.189,360.008,91.232z M120.008,91.208c28.864,11.28,89.504,12.8,120,12.8
			c29.416,0.246,58.816-1.486,88-5.184v45.36c-69.064,11.834-139.804,9.636-208-6.464V91.208z M19.864,338.536l96.376-185.328
			c11.024,2.619,22.112,4.877,33.264,6.776L84.52,353.456L19.864,338.536z M171.864,391.64l-81.024-6.76l74.712-222.4
			c11.168,1.563,22.368,2.771,33.6,3.624L171.864,391.64z M185.032,416.008l30.176-248.936c8.272,0.376,16.544,0.632,24.8,0.632
			s16.552-0.256,24.8-0.632l30.176,248.936H185.032z M308.152,391.64l-27.344-225.544c11.243-0.853,22.443-2.061,33.6-3.624
			l74.712,222.4L308.152,391.64z M395.496,353.456l-64.984-193.448c11.152-1.904,22.24-4.163,33.264-6.776l96.376,185.304
			L395.496,353.456z"/>
	</g>
</g>
<g>
</g>
<g>
</g>
<g>
</g>
<g>
</g>
<g>
</g>
<g>
</g>
<g>
</g>
<g>
</g>
<g>
</g>
<g>
</g>
<g>
</g>
<g>
</g>
<g>
</g>
<g>
</g>
<g>
</g>
</svg>
