<svg id="Capa_1" enable-background="new 0 0 512.073 512.073" height="512" viewBox="0 0 512.073 512.073" width="512" xmlns="http://www.w3.org/2000/svg"><g><path d="m488.747 422.049c-1.912-1.686-3.933-3.468-6.054-5.352l-84.014-74.634c-15.054-13.397-24.724-12.706-39.36-11.661-1.045.075-2.13.152-3.255.228-75.895 5.029-108.035-5.601-148.808-78.444-9.726-17.367-17.738-36.479-26.22-56.712-23.275-55.519-47.339-112.925-110.169-142.625-9.869-5.301-18.375-6.364-25.29-3.159-7.447 3.452-9.946 10.481-10.599 12.868-2.98 7.852-7.324 17.012-11.918 26.7-10.195 21.499-21.751 45.867-22.792 65.73-.554 10.367-.464 20.912 2.365 30.491 13.42 77.937 22.087 182.406 22.087 266.335 0 6.808 5.539 12.347 12.347 12.347h33.279c6.792 0 12.319-5.539 12.319-12.347v-83.652c0-25.593 7.186-49.321 15.507-76.796.037-.123.075-.249.112-.372 17.791 20.946 36.396 45.809 55.363 76.758 10.191 16.629 32.813 59.477 33.723 61.303 7.86 15.766 12.604 25.283 24.19 30.343 10.506 4.589 25.219 4.792 54.857 4.792h66.869c4.142 0 7.5-3.358 7.5-7.5s-3.358-7.5-7.5-7.5h-66.869c-26.778 0-41.113-.157-48.854-3.539-6.275-2.741-9.209-8.125-16.769-23.289-.921-1.847-21.693-41.359-31.039-56.879-44.346-73.637-87.615-115.454-120.766-147.493-9.161-8.854-17.814-17.216-25.551-25.322-7.988-8.356-9.053-20.787-8.193-36.889.886-16.908 11.767-39.852 21.366-60.096 2.311-4.872 4.555-9.61 6.624-14.168l52.444 89.457c1.396 2.381 3.903 3.708 6.477 3.708 1.289 0 2.594-.332 3.786-1.031 3.573-2.095 4.772-6.69 2.677-10.263l-58.05-99.023c.345-.418.772-.811 1.316-1.064 1.097-.509 4.47-1.252 12.026 2.841.123.066.248.13.375.189 57.756 27.22 80.714 81.983 102.915 134.944 8.652 20.638 16.824 40.132 26.966 58.241 22.575 40.33 43.019 62.774 68.359 75.046 23.21 11.241 49.977 13.201 82.281 11.729-33.435 15.611-57.812 22.638-79.365 18.408-26.932-5.282-52.027-28.896-86.59-81.48l-52.712-89.95c-2.095-3.574-6.69-4.772-10.263-2.679-3.574 2.094-4.773 6.689-2.679 10.263l52.809 90.116c.064.11.132.219.202.326 37.077 56.442 64.99 81.974 96.345 88.124 5.135 1.007 10.335 1.497 15.677 1.497 27.115 0 57.735-12.659 100.304-34.561 3.081 1.223 6.164 3.35 10.177 6.921l84.019 74.638c2.135 1.897 4.171 3.691 6.096 5.389 6.107 5.384 12.364 10.901 15.787 14.576-8.338 1.285-25.767 1.285-33.172 1.285h-92.522c-4.142 0-7.5 3.358-7.5 7.5s3.358 7.5 7.5 7.5h92.522c35.647 0 46.518-1.342 49.875-10.226 3.398-8.992-4.74-16.167-22.57-31.887zm-421.082 27.112h-27.947c-.018-8.351-.112-16.829-.271-25.395h28.219v25.395zm-29.098-220.384c14.863 14.364 31.026 29.986 48.064 48.898-.943 3.151-1.885 6.274-2.814 9.343-8.306 27.425-16.151 53.33-16.151 81.144v40.605h-28.568c-1.819-65.428-7.6-135.091-16.786-195.846 5.185 5.155 10.623 10.413 16.255 15.856z"/></g></svg>