<?xml version="1.0"?>
<svg xmlns="http://www.w3.org/2000/svg" id="Outline" viewBox="0 0 512 512" width="512" height="512"><path d="M239.875,48a24,24,0,1,0,24,24A24.028,24.028,0,0,0,239.875,48Zm0,32a8,8,0,1,1,8-8A8.009,8.009,0,0,1,239.875,80Z"/><path d="M440,312H416a8,8,0,0,0,0,16h24a8,8,0,0,0,0-16Z"/><path d="M440,344H416a8,8,0,0,0,0,16h24a8,8,0,0,0,0-16Z"/><path d="M440,376H416a8,8,0,0,0,0,16h24a8,8,0,0,0,0-16Z"/><path d="M440,408H416a8,8,0,0,0,0,16h24a8,8,0,0,0,0-16Z"/><path d="M440,440H416a8,8,0,0,0,0,16h24a8,8,0,0,0,0-16Z"/><path d="M104,472a72.288,72.288,0,0,0,24-4.111V472a23.984,23.984,0,0,0,42.119,15.712A135.285,135.285,0,0,0,217.006,496h45.737a134.545,134.545,0,0,0,53.728-11.022A39.845,39.845,0,0,0,344,496h96a40.045,40.045,0,0,0,40-40V328a71.982,71.982,0,0,0-32.388-60.082,31.98,31.98,0,0,0-.482-56.107A35.421,35.421,0,0,0,448,204c0-14.536-9.069-28.02-24-36.161V136a31.984,31.984,0,0,0-47-28.258A136.016,136.016,0,0,0,248.4,16H231.352A136,136,0,0,0,95.673,142.643L82.667,331.227A72,72,0,0,0,104,472Zm56,0a8,8,0,0,1-16,0V328a8,8,0,0,1,16,0Zm16-111.577a19.445,19.445,0,0,1,4-.423c9.564,0,18.7,7.352,23.833,19.186A8,8,0,0,0,211.172,384H248a16,16,0,0,1,0,32H211.172a8,8,0,0,0-7.339,4.814C198.7,432.648,189.564,440,180,440a19.452,19.452,0,0,1-4-.423ZM464,328V456a24.028,24.028,0,0,1-24,24H344a24.028,24.028,0,0,1-24-24V328a56.063,56.063,0,0,1,56-56h32A56.063,56.063,0,0,1,464,328Zm-32-72H352a16,16,0,0,1,0-32h80a16,16,0,0,1,0,32ZM392,120a16.019,16.019,0,0,1,16,16v36.828a8,8,0,0,0,4.814,7.339C424.648,185.3,432,194.436,432,204a19.452,19.452,0,0,1-.423,4H352.425a19.447,19.447,0,0,1-.425-4c0-9.564,7.352-18.7,19.186-23.833A8,8,0,0,0,376,172.828V136A16.019,16.019,0,0,1,392,120ZM111.636,143.744A120.074,120.074,0,0,1,195.957,37.317a55.9,55.9,0,0,0,12.59,81.078A79.989,79.989,0,1,0,239.875,112a40,40,0,0,1,0-80H248.4a118.789,118.789,0,0,1,74.526,25.944A120.545,120.545,0,0,1,364.132,120.3,31.8,31.8,0,0,0,360,136v31.839c-14.931,8.141-24,21.625-24,36.161a35.454,35.454,0,0,0,.877,7.808,31.98,31.98,0,0,0-.489,56.11A71.982,71.982,0,0,0,304,328V456a39.78,39.78,0,0,0,3.14,15.533,118.845,118.845,0,0,1-44.4,8.467H217.006a119.4,119.4,0,0,1-41.027-7.186c.009-.271.021-.541.021-.814V455.774a35.514,35.514,0,0,0,4,.226c14.537,0,28.02-9.069,36.161-24H248a32,32,0,0,0,0-64H216.161c-8.141-14.931-21.624-24-36.161-24a35.514,35.514,0,0,0-4,.226V328a24,24,0,0,0-48,0v4.118A72.152,72.152,0,0,0,104,328c-1.711,0-3.4.082-5.085.2ZM239.875,128a64,64,0,1,1-64,64A64.072,64.072,0,0,1,239.875,128ZM104,344a56.051,56.051,0,0,1,24,5.4v18.624a40,40,0,1,0,0,63.956V450.6A56,56,0,1,1,104,344Zm24,56a24,24,0,1,1-24-24A24.028,24.028,0,0,1,128,400Z"/></svg>
