<svg height="512pt" viewBox="-22 0 512 512" width="512pt" xmlns="http://www.w3.org/2000/svg"><path d="m32.738281 164.417969c4.117188.457031 7.820313-2.523438 8.269531-6.644531l4.277344-39.222657c.804688-7.371093 7.003906-12.925781 14.417969-12.925781h52.109375v25.140625c0 4.140625 3.355469 7.5 7.5 7.5 4.140625 0 7.5-3.359375 7.5-7.5v-25.140625h128.953125v25.140625c0 4.140625 3.359375 7.5 7.503906 7.5 4.140625 0 7.5-3.359375 7.5-7.5v-25.140625h52.105469c7.414062 0 13.613281 5.558594 14.417969 12.929688l10.285156 94.269531c.417969 3.84375 3.667969 6.6875 7.445313 6.6875.269531 0 .546874-.015625.820312-.042969 4.121094-.449219 7.09375-4.152344 6.644531-8.269531l-10.285156-94.273438c-1.636719-14.996093-14.246094-26.304687-29.328125-26.304687h-52.109375v-11.144532c.003906-43.824218-35.652344-79.476562-79.476563-79.476562-43.824218 0-79.476562 35.652344-79.476562 79.476562v11.144532h-52.109375c-15.082031 0-27.691406 11.308594-29.328125 26.304687l-4.277344 39.222657c-.449218 4.117187 2.523438 7.820312 6.640625 8.269531zm94.074219-84.941407c0-35.550781 28.925781-64.476562 64.476562-64.476562 35.554688 0 64.476563 28.925781 64.476563 64.476562v11.144532h-128.953125zm0 0"/><path d="m392.574219 276.34375c-9.183594 9.183594-9.183594 24.128906 0 33.3125 4.589843 4.59375 10.621093 6.890625 16.65625 6.890625 6.03125 0 12.0625-2.296875 16.65625-6.890625 9.183593-9.183594 9.183593-24.128906 0-33.3125-9.183594-9.183594-24.128907-9.183594-33.3125 0zm22.707031 22.707031c-3.335938 3.335938-8.765625 3.335938-12.101562 0-3.335938-3.335937-3.335938-8.765625 0-12.097656 3.335937-3.335937 8.765624-3.335937 12.101562 0s3.335938 8.761719 0 12.097656zm0 0"/><path d="m467.824219 353.761719-3.492188-86.195313c-.648437-15.988281-13.679687-29.015625-29.664062-29.664062l-86.199219-3.496094c-8.609375-.351562-17.039062 2.945312-23.132812 9.039062l-125.445313 125.445313c-6.289063 6.289063-9.503906 14.503906-9.652344 22.761719h-174.746093l22.269531-204.171875c.449219-4.121094-2.523438-7.820313-6.640625-8.269531-4.125-.453126-7.820313 2.523437-8.269532 6.640624l-22.492187 206.1875c-1.882813 17.292969 3.695313 34.636719 15.3125 47.589844 11.613281 12.949219 28.253906 20.375 45.644531 20.375h182.976563l42.335937 42.335938c6.441406 6.441406 14.898438 9.660156 23.355469 9.660156s16.917969-3.21875 23.355469-9.660156l125.445312-125.445313c6.09375-6.09375 9.390625-14.523437 9.039063-23.132812zm-406.507813 91.242187c-13.136718 0-25.703125-5.609375-34.476562-15.390625-5.84375-6.511719-9.664063-14.496093-11.144532-22.960937h177.828126c1.5625 3.238281 3.6875 6.269531 6.367187 8.949218l29.402344 29.402344zm386.863282-78.714844-125.445313 125.445313c-7.03125 7.027344-18.46875 7.03125-25.5 0l-86.738281-86.738281c-7.027344-7.03125-7.027344-18.46875 0-25.5l125.449218-125.445313c2.988282-2.988281 7.066407-4.667969 11.277344-4.667969.210938 0 .425782.003907.640625.011719l86.195313 3.496094c8.238281.332031 14.949218 7.046875 15.285156 15.28125l3.492188 86.195313c.179687 4.4375-1.515626 8.78125-4.65625 11.921874zm0 0"/><path d="m305.765625 362.773438c14.367187 0 26.058594-11.691407 26.058594-26.054688 0-14.367188-11.691407-26.058594-26.058594-26.058594s-26.054687 11.691406-26.054687 26.058594c0 14.363281 11.6875 26.054688 26.054687 26.054688zm0-37.109376c6.097656 0 11.058594 4.957032 11.058594 11.054688 0 6.09375-4.960938 11.054688-11.058594 11.054688-6.09375 0-11.054687-4.960938-11.054687-11.054688 0-6.097656 4.960937-11.054688 11.054687-11.054688zm0 0"/><path d="m352.300781 383.625c-14.367187 0-26.054687 11.6875-26.054687 26.054688 0 14.367187 11.6875 26.058593 26.054687 26.058593 14.367188 0 26.054688-11.691406 26.054688-26.058593 0-14.367188-11.6875-26.054688-26.054688-26.054688zm0 37.109375c-6.097656 0-11.054687-4.957031-11.054687-11.054687 0-6.09375 4.957031-11.054688 11.054687-11.054688 6.097657 0 11.054688 4.960938 11.054688 11.054688 0 6.097656-4.960938 11.054687-11.054688 11.054687zm0 0"/><path d="m372.582031 329.652344c-2.929687-2.929688-7.679687-2.929688-10.605469 0l-76.488281 76.488281c-2.929687 2.929687-2.929687 7.679687 0 10.605469 1.460938 1.464844 3.382813 2.199218 5.300781 2.199218 1.917969 0 3.839844-.734374 5.304688-2.199218l76.488281-76.488282c2.929688-2.929687 2.929688-7.679687 0-10.605468zm0 0"/></svg>