<svg id="Capa_1" enable-background="new 0 0 511.177 511.177" height="512" viewBox="0 0 511.177 511.177" width="512" xmlns="http://www.w3.org/2000/svg"><path d="m480.746 48.231-18.208-18.208c-16.48-16.48-37.383-26.733-60.451-29.653-4.102-.531-7.862 2.389-8.382 6.499-.521 4.109 2.39 7.862 6.499 8.382 19.735 2.498 37.622 11.273 51.728 25.379l18.208 18.208c34.727 34.727 34.727 91.231 0 125.958l-63.73 63.73c-17.207 17.208-40.114 26.006-63.112 26.005-16.234-.002-32.509-4.399-46.849-13.309l32.317-32.317c4.785 1.129 9.684 1.698 14.582 1.698 10.075 0 20.133-2.367 29.117-7.007 3.68-1.9 5.123-6.425 3.223-10.105s-6.426-5.123-10.105-3.223c-7.616 3.932-16.245 5.724-24.784 5.275 2.993-4.954 4.593-10.644 4.593-16.581 0-8.588-3.344-16.661-9.416-22.734l-.651-.651c-10.855-10.854-27.598-12.301-40.032-4.361-1.12-13.958 3.861-27.897 13.99-38.026l45.521-45.521c9.121-9.122 21.249-14.146 34.148-14.146s25.027 5.023 34.149 14.146c9.121 9.121 14.145 21.248 14.145 34.148 0 12.899-5.023 25.027-14.146 34.148l-32.238 32.238c-2.93 2.93-2.93 7.678-.001 10.606 2.929 2.929 7.678 2.93 10.606.001l32.24-32.238c11.954-11.955 18.538-27.85 18.538-44.756 0-16.907-6.584-32.802-18.538-44.756-24.68-24.678-64.832-24.678-89.512 0l-45.521 45.521c-15.91 15.908-22.138 38.989-16.509 60.684l-32.006 32.006c-22.203-34.742-17.497-81.333 12.083-110.913l63.73-63.731c11.699-11.7 26.349-19.89 42.363-23.682 4.03-.954 6.524-4.995 5.569-9.026-.954-4.03-4.995-6.526-9.026-5.569-18.724 4.434-35.845 14.002-49.514 27.671l-63.73 63.73c-17.818 17.819-28.56 41.464-30.245 66.579-1.57 23.403 4.783 46.587 17.935 65.777l-12.808 12.808c-19.191-13.152-42.38-19.51-65.777-17.935-25.115 1.685-48.76 12.426-66.579 30.244l-63.73 63.73c-40.574 40.576-40.574 106.597.001 147.173 5.842 5.657 20.373 20.973 26.597 25.743 3.203 2.587 7.935 2.104 10.545-1.137 2.599-3.226 2.09-7.947-1.136-10.545-5.33-4.05-20.356-19.803-25.399-24.669-34.727-34.727-34.727-91.231 0-125.958l63.73-63.73c29.58-29.579 76.172-34.285 110.914-12.082l-32.005 32.006c-21.693-5.629-44.775.598-60.686 16.508l-16.534 16.537c-2.929 2.93-2.929 7.678 0 10.607 2.93 2.928 7.677 2.928 10.607 0l16.533-16.534c10.27-10.269 24.458-15.237 38.607-13.932-6.855 12.243-5.092 28.05 5.31 38.453 9.564 10.402 26.075 13.095 38.419 6.345.941 13.755-4.032 27.425-14.038 37.43l-45.521 45.522c-18.831 18.831-49.47 18.828-68.299-.001-9.121-9.121-14.145-21.248-14.145-34.148-.234-15.081 7.26-28.575 18.385-38.387 2.929-2.93 2.929-7.678 0-10.607-2.93-2.928-7.678-2.928-10.607 0-14.062 12.564-22.98 29.939-22.777 48.995 0 16.906 6.584 32.801 18.539 44.756 12.339 12.338 28.547 18.508 44.755 18.508s32.416-6.17 44.756-18.508l45.521-45.522c15.634-15.635 21.898-38.093 16.818-59.427l32.317-32.317c21.533 34.65 16.652 80.613-12.704 109.968l-63.73 63.729c-23.715 23.716-58.305 32.077-90.266 21.826-3.941-1.263-8.168.905-9.433 4.851-1.266 3.944.906 8.167 4.851 9.433 10.543 3.382 21.329 5.029 32.006 5.029 27.138 0 53.564-10.647 73.449-30.531l63.73-63.729c17.877-17.877 28.623-41.602 30.26-66.804 1.492-22.958-4.65-45.665-17.328-64.607l13.132-13.132c17.075 11.429 37.207 17.549 57.827 17.548 2.255 0 4.518-.073 6.78-.22 25.202-1.637 48.927-12.384 66.804-30.26l63.73-63.73c40.576-40.577 40.576-106.597.001-147.173zm-279.85 280.228c-4.902.024-9.465-2.088-12.778-5.675-6.687-6.688-6.687-17.567 0-24.254l112.345-112.346c6.688-6.687 17.567-6.687 24.254 0 7.204 6.29 7.584 18.27.651 24.904l-112.346 112.348c-3.239 3.239-7.545 5.023-12.126 5.023z"/></svg>